<?xml version="1.0" standalone="no"?>
<!DOCTYPE svg PUBLIC "-//W3C//DTD SVG 20010904//EN"
 "http://www.w3.org/TR/2001/REC-SVG-20010904/DTD/svg10.dtd">
<svg version="1.0" xmlns="http://www.w3.org/2000/svg"
 width="1280.000000pt" height="440.000000pt" viewBox="0 0 1280.000000 440.000000"
 preserveAspectRatio="xMidYMid meet">

<g transform="translate(0.000000,440.000000) scale(0.100000,-0.100000)"
fill="#fff" stroke="none">
<path d="M275 4113 c5 -10 18 -43 29 -73 21 -55 21 -59 24 -1575 2 -879 -1
-1567 -6 -1631 -7 -77 -16 -124 -31 -154 -11 -24 -21 -45 -21 -47 0 -2 322 -3
715 -3 l715 0 0 186 c0 145 -3 185 -12 181 -185 -78 -189 -78 -663 -75 l-400
3 -3 1455 c-1 831 2 1483 7 1521 5 36 21 95 36 130 14 35 29 72 32 82 5 16
-10 17 -212 17 -203 0 -217 -1 -210 -17z"/>
<path d="M915 4113 c4 -10 17 -40 29 -68 l21 -50 0 -1290 0 -1290 -26 -62 -27
-63 389 0 389 0 0 185 c0 102 -2 185 -4 185 -2 0 -37 -16 -77 -35 -69 -32 -84
-35 -206 -41 l-133 -7 0 872 0 871 168 0 c207 0 285 -11 362 -50 33 -16 62
-30 65 -30 3 0 4 84 3 188 l-3 187 -297 3 -298 2 0 107 0 106 119 -5 c122 -5
124 -6 264 -76 4 -2 7 82 7 187 l0 191 -376 0 c-354 0 -376 -1 -369 -17z"/>
<path d="M1945 4113 c4 -10 17 -47 29 -83 l21 -65 0 -1580 0 -1580 -22 -75
c-12 -41 -25 -83 -28 -92 -7 -17 3 -18 128 -18 162 0 221 10 307 52 122 59
222 182 330 403 99 205 139 316 347 965 80 250 179 559 220 685 134 414 183
637 183 830 0 178 -40 291 -138 389 -105 105 -254 160 -481 176 -75 5 -309 10
-520 10 -361 0 -383 -1 -376 -17z m1000 -319 c129 -31 185 -102 185 -237 0
-190 -137 -678 -459 -1637 -93 -278 -187 -546 -208 -595 -42 -96 -108 -214
-142 -255 l-20 -25 -1 1386 0 1386 293 -4 c208 -3 309 -9 352 -19z"/>
<path d="M3860 3946 l0 -183 88 36 87 36 278 3 c152 2 277 1 277 -2 0 -4 -272
-713 -605 -1576 -333 -864 -605 -1573 -605 -1575 0 -3 565 -5 1255 -5 l1255 0
0 185 0 184 -52 -26 c-118 -59 -71 -57 -1077 -60 -884 -4 -923 -3 -919 14 3
10 274 719 602 1576 328 857 596 1563 596 1568 0 5 -239 9 -590 9 l-590 0 0
-184z"/>
<path d="M5139 4093 c40 -81 41 -99 41 -1391 0 -1095 -2 -1255 -16 -1307 -8
-33 -22 -70 -30 -82 l-14 -23 395 0 395 0 0 185 c0 131 -3 185 -11 185 -6 0
-36 -14 -67 -32 -50 -28 -67 -32 -187 -41 -72 -6 -139 -7 -148 -4 -16 6 -17
73 -15 869 l3 863 164 3 c199 3 285 -8 359 -45 31 -15 60 -29 64 -31 5 -2 8
82 8 187 l0 191 -300 0 -300 0 0 106 0 107 119 -5 c111 -5 125 -8 195 -41 l76
-36 0 189 0 190 -375 0 -375 0 19 -37z"/>
<path d="M6163 4113 c3 -10 15 -43 26 -73 20 -54 20 -76 20 -1640 0 -1705 3
-1595 -44 -1703 -7 -16 6 -17 198 -17 l205 0 -27 63 -26 62 0 1280 0 1280 305
5 c294 5 307 6 352 28 64 32 132 103 169 177 36 74 47 169 30 271 -22 131 -88
208 -219 257 -55 20 -76 21 -526 25 -450 3 -468 3 -463 -15z m944 -309 c23
-23 25 -31 21 -81 -8 -95 -1 -93 -334 -93 l-284 0 0 100 0 100 285 0 286 0 26
-26z"/>
<path d="M7553 4113 c3 -10 15 -43 26 -73 20 -54 20 -76 20 -1640 0 -1705 3
-1595 -44 -1703 -7 -16 6 -17 198 -17 l205 0 -27 63 -26 62 -3 1283 -3 1282
289 0 c346 0 362 3 452 86 40 38 70 77 92 122 32 64 33 71 32 177 -2 197 -60
287 -223 348 -53 20 -78 21 -525 25 -450 3 -468 3 -463 -15z m944 -309 c23
-23 25 -31 20 -82 -10 -94 -1 -92 -333 -92 l-284 0 0 100 0 100 285 0 286 0
26 -26z"/>
<path d="M9254 4122 l-382 -2 27 -63 26 -62 3 -1595 c2 -1097 -1 -1611 -8
-1646 -6 -28 -19 -68 -29 -88 l-19 -36 509 0 509 0 0 185 c0 102 -2 185 -5
185 -3 0 -32 -13 -63 -30 -82 -43 -138 -50 -378 -50 l-214 0 0 1195 0 1195
223 0 c252 0 318 -8 396 -47 31 -16 59 -29 63 -31 5 -2 8 82 8 187 l0 191
-345 0 -345 0 0 104 0 104 106 7 c119 8 194 -6 271 -51 23 -13 44 -24 48 -24
10 0 1 373 -10 374 -5 1 -182 0 -391 -2z"/>
<path d="M10038 4073 l27 -58 3 -955 c1 -525 -1 -1263 -6 -1640 -7 -678 -8
-685 -30 -734 -12 -27 -22 -50 -22 -52 0 -2 252 -4 560 -4 l560 0 0 185 c0
102 -2 185 -4 185 -2 0 -32 -13 -67 -29 -97 -44 -158 -51 -441 -51 l-259 0 6
1478 c4 812 11 1501 16 1530 7 43 28 104 66 190 4 9 -43 12 -215 12 l-221 0
27 -57z"/>
<path d="M10675 4113 c4 -10 16 -44 26 -76 18 -56 19 -114 19 -1325 -1 -1359
2 -1277 -45 -1385 -7 -16 6 -17 198 -17 l205 0 -27 68 -26 67 -3 1195 c-3
1243 0 1351 38 1438 11 24 20 46 20 48 0 2 -93 4 -206 4 -192 0 -206 -1 -199
-17z"/>
<path d="M11340 4121 c0 -5 10 -30 23 -57 l22 -49 -1 -1620 c0 -1607 0 -1620
-20 -1675 -12 -30 -24 -63 -29 -72 -7 -17 6 -18 198 -18 l206 0 -19 43 c-10
23 -23 69 -28 102 -12 69 -3 1995 8 1973 4 -7 108 -301 231 -653 l224 -640 0
-540 c0 -535 0 -540 -22 -588 l-22 -47 203 0 202 0 -23 70 -23 69 2 1803 3
1803 23 48 c12 27 22 51 22 53 0 2 -93 4 -206 4 -193 0 -206 -1 -199 -17 47
-108 45 -69 43 -907 l-3 -785 -178 487 -178 487 3 368 3 367 -232 0 c-128 0
-233 -4 -233 -9z"/>
<path d="M3326 2223 c-38 -104 -71 -194 -74 -200 -3 -10 49 -13 240 -13 l244
0 69 188 c37 103 70 193 73 200 3 9 -49 12 -240 12 l-244 0 -68 -187z"/>
</g>
</svg>
